# xmcd
#
# Track frame offsets:
#	150
#	18552
#	43166
#	63646
#	85625
#	104458
#	118686
#	161078
#	183559
#	209344
#	226073
#	252568
#	278659
#
# Disc length: 4035 seconds
#
# Revision: 2
# Processed by: cddbd v1.5.1PL2 Copyright (c) Steve Scherf et al.
# Submitted via: audiograbber 1.82.02
#
DISCID=b70fc10d
DTITLE=Cracker - Greatest Hits: Redux
DYEAR=2006
DGENRE=Alternative
TTITLE0=Teen Angst (What The World Needs Now)
TTITLE1=I Saw The Light
TTITLE2=Mr. Wrong
TTITLE3=Low
TTITLE4=Get Off This
TTITLE5=Lonesome Johnny blues
TTITLE6=Euro-Trash Girl
TTITLE7=Sweet Thistle Pie
TTITLE8=Big Dipper
TTITLE9=The World Is Mine
TTITLE10=Duty Free
TTITLE11=It Ain't Gonna Suck Itself
TTITLE12=Something You Ain't Got
EXTD=
EXTT0=
EXTT1=
EXTT2=
EXTT3=
EXTT4=
EXTT5=
EXTT6=
EXTT7=
EXTT8=
EXTT9=
EXTT10=
EXTT11=
EXTT12=
PLAYORDER=
